<svg width="32" height="32" viewBox="0 0 32 32" xmlns="http://www.w3.org/2000/svg">
<path fill="#ffce29" style="fill: var(--color1, #ffce29)" d="M6.498 11.322c0 0-1.82-1.087-2.064-2.065-0.516-2.065 0.726-3.796 2.065-5.161 1.474-1.502 5.161-1.032 5.161-1.032s0.516-1.548 3.097-2.065c2.024-0.405 3.097 1.032 3.097 1.032s1.663-0.417 2.581 0c0.779 0.354 1.548 1.548 1.548 1.548s1.832 0.127 2.581 1.032c0.813 0.982 1.548 1.548 1.548 3.613 0 1.548-1.032 2.064-1.032 2.064l-1.032 1.032-16 0.516-1.548-0.516z"></path>
<path fill="#fd2923" style="fill: var(--color2, #fd2923)" d="M4.949 12.871c0 3.613 0.516 7.742 0.516 7.742l1.032 6.71c0 0 0.020 1.398 0.516 2.065 0.434 0.583 1.548 1.032 1.548 1.032l12.387 0.516c0 0 1.403-0.013 2.065-0.516 0.864-0.657 1.032-2.581 1.032-2.581s2.581-9.29 2.581-14.968c0-1.574-0.516-3.613-2.065-3.613-1.008 0-2.581 1.548-2.581 1.548s-1.057-0.516-2.065-0.516c-1.008 0-1.548 0.516-1.548 0.516s-1.548-1.548-2.581-1.548c-1.148 0-1.548 2.065-1.548 2.065s-1.518-1.256-2.581-1.032c-0.711 0.15-2.065 0.516-2.065 0.516s-0.516-1.548-2.955-0.656c-1.338 0.49-1.69 1.295-1.69 2.72z"></path>
<path fill="#fff" style="fill: var(--color3, #fff)" d="M12.691 29.387c0.998-0.143 1.548-1.057 1.548-2.065 0-2.581 0.014-4.598 0-7.226-0.015-2.829 0-4.129 0-6.71 0-1.454 0-3.097-2.065-3.613s-2.581 2.039-2.581 3.613c0 1.548 0.321 4.089 0.516 6.71 0.21 2.821 0 5.161 0.516 7.226 0.277 1.106 0.936 2.226 2.065 2.065z"></path>
<path fill="#fff" style="fill: var(--color3, #fff)" d="M19.401 29.915c0.998-0.143 1.548-1.057 1.548-2.065 0-2.581 0.014-5.125 0-7.753-0.015-2.829 0.516-3.613 1.032-6.194 0.285-1.425 0-3.613-1.548-4.129-1.97-0.657-2.065 2.065-2.581 3.613-0.49 1.469-0.516 4.129-0.516 6.71 0 2.829-0.516 6.194 0 8.258 0.277 1.106 0.936 1.721 2.065 1.56z"></path>
<path fill="#fff" style="fill: var(--color3, #fff)" d="M7.065 7.474c0.516 0 0.792-0.606 0.792-0.928s0.143-0.611 0.708-1.005c0.565-0.394 0.858-0.171 1.548-0.516s0.5-1.164 0.049-1.164c-0.142 0-0.629 0-1.032 0 0 0-1.131 0.112-1.789 0.62-0.714 0.551-1.18 1.068-1.308 1.961-0.057 0.399 0.516 1.032 1.032 1.032z"></path>
<path fill="#2f2828" style="fill: var(--color4, #2f2828)" d="M4.949 12.355c0 0-0.051-2.581 2.581-2.581 2.225 0 2.148 0.767 2.084 0.979 0.108-0.273 0.669-1.495 2.045-1.495 1.175 0 2.581 2.065 2.581 2.065s0-2.065 1.548-2.065c1.548 0 2.581 1.548 2.581 1.548s0.516-1.548 2.065-1.032c1.548 0.516 1.548 1.032 1.548 1.032s1.44-1.548 2.581-1.548c2.064 0 1.549 2.065 1.549 2.065s-0.492-1.368-1.032-1.548c-1.548-0.516-3.097 1.548-3.097 1.548s-0.859-0.802-1.548-1.032c-1.548-0.516-2.065 1.032-2.065 1.032s-1.446-1.853-2.581-1.548c-0.973 0.262-1.548 2.065-1.548 2.065s-1.406-2.105-2.581-2.065c-1.29 0.045-2.065 2.065-2.065 2.065s-0.516-1.548-2.065-1.548c-1.548 0-2.581 2.065-2.581 2.065z"></path>
<path fill="#dd9907" style="fill: var(--color5, #dd9907)" d="M10.627 7.193c-0.88 0.491-1.251 2.065-1.548 2.065s0.286-2.095 1.548-2.581c1.19-0.458 3.097 0.24 3.097 0.516s-2.337-0.424-3.097 0z"></path>
<path fill="#dd9907" style="fill: var(--color5, #dd9907)" d="M18.369 5.645c-0.898-0.458-2.22 0.361-2.581 0s1.991-1.295 3.097-0.516c1.042 0.734 2.065 2.065 1.548 2.065s-1.289-1.153-2.065-1.548z"></path>
<path fill="#429ad4" style="fill: var(--color6, #429ad4)" d="M2.885 31.968c1.008 0 1.121-1.573 0.516-2.581s-1.032-1.548-1.548-2.065c-0.516-0.516-0.978-0.801-1.548-0.516-0.721 0.361 0 1.032 0.516 1.548s0.777 1.038 1.032 1.548 0.516 2.065 1.032 2.065z"></path>
<path fill="#429ad4" style="fill: var(--color6, #429ad4)" d="M4.498 29.901c1.548 0 0.605-3.121 0-4.129s-1.244-1.436-1.76-1.952c-0.516-0.516-0.978-0.801-1.548-0.516-0.721 0.361 0 1.032 0.516 1.548s1.441 1.444 1.696 1.954c1.032 2.065 0.065 3.095 1.097 3.095z"></path>
<path fill="#df4bb1" style="fill: var(--color7, #df4bb1)" d="M27.143 7.71c0.966 0.287 1.72-1.912 1.548-2.581s-0.521-1.227-1.176-1.922c-0.655-0.695-1.105-1.047-1.732-0.936-0.794 0.14 0.054 1.115 0.328 1.31s0.933 0.987 1.032 1.548c0.201 1.137-0.495 2.434 0 2.581z"></path>
<path fill="#df4bb1" style="fill: var(--color7, #df4bb1)" d="M29.723 5.645c0.516 0.153 1.325-0.926 1.032-2.065s-0.488-1.328-0.836-1.97-1.228-1.127-1.745-0.611c-0.57 0.57 0.168 0.907 0.516 1.548s0.382 0.478 0.516 1.032c0.215 0.883-0.473 1.77 0.516 2.065z"></path>
</svg>